<svg width="24" height="24" viewBox="0 0 24 24" fill="none" xmlns="http://www.w3.org/2000/svg">
<path fill-rule="evenodd" clip-rule="evenodd" d="M3 1.5H21C21.8284 1.5 22.5 2.17157 22.5 3V21C22.5 21.8284 21.8284 22.5 21 22.5H3C2.17157 22.5 1.5 21.8284 1.5 21V3C1.5 2.17157 2.17157 1.5 3 1.5ZM0 3C0 1.34315 1.34315 0 3 0H21C22.6569 0 24 1.34315 24 3V21C24 22.6569 22.6569 24 21 24H3C1.34315 24 0 22.6569 0 21V3ZM7.09091 21C7.09091 21 3 20.1818 3 16.9091C3 15.6427 3.55132 14.7438 4.22727 14.1176C4.77422 6.14471 6.27273 3 12 3C17.7273 3 19.2258 6.14471 19.7727 14.1176C20.4487 14.7438 21 15.6427 21 16.9091C21 20.1818 16.9091 21 16.9091 21V12.8182C16.9091 12.8182 17.6605 12.8943 18.1364 13.0928C17.3385 6.48865 16.0909 4.63636 12 4.63636C7.90909 4.63636 6.66155 6.48865 5.86364 13.0928C6.33951 12.8943 7.09091 12.8182 7.09091 12.8182V21Z" fill="#FFD9D9"/>
</svg>
