<svg width="29" height="26" viewBox="0 0 29 26" fill="none" xmlns="http://www.w3.org/2000/svg">
<path fill-rule="evenodd" clip-rule="evenodd" d="M14.7636 0L11.6 7.08H3C1.34314 7.08 0 8.42315 0 10.08V23C0 24.6569 1.34315 26 3 26H26C27.6569 26 29 24.6569 29 23V10.08C29 8.42315 27.6569 7.08 26 7.08H17.4L14.7636 0ZM7.5 19C8.88071 19 10 17.8807 10 16.5C10 15.1193 8.88071 14 7.5 14C6.11929 14 5 15.1193 5 16.5C5 17.8807 6.11929 19 7.5 19ZM14.5 19C15.8807 19 17 17.8807 17 16.5C17 15.1193 15.8807 14 14.5 14C13.1193 14 12 15.1193 12 16.5C12 17.8807 13.1193 19 14.5 19ZM24 16.5C24 17.8807 22.8807 19 21.5 19C20.1193 19 19 17.8807 19 16.5C19 15.1193 20.1193 14 21.5 14C22.8807 14 24 15.1193 24 16.5Z" fill="#FFD9D9"/>
</svg>
