<svg width="34" height="27" viewBox="0 0 34 27" fill="none" xmlns="http://www.w3.org/2000/svg">
<path fill-rule="evenodd" clip-rule="evenodd" d="M17.2289 3.36712C17.8552 3.13335 18.3053 2.48889 18.3053 1.73048C18.3053 0.77476 17.5906 0 16.709 0C15.8275 0 15.1128 0.77476 15.1128 1.73048C15.1128 2.36916 15.432 2.92703 15.9068 3.22686C15.052 7.89515 14.4314 10.9173 13.574 14.4235C13.4818 14.8005 13.0135 14.9298 12.7455 14.6491C10.9727 12.7917 9.81089 11.1138 8.49015 8.69651C8.64099 8.43227 8.72806 8.12072 8.72806 7.78714C8.72806 6.83142 8.01341 6.05666 7.13185 6.05666C6.25029 6.05666 5.53564 6.83142 5.53564 7.78714C5.53564 8.74059 6.2469 9.51394 7.12558 9.5176C7.1835 11.7833 7.15846 13.8633 7.01361 16.8122C6.99676 17.1551 6.64554 17.3797 6.33016 17.244C5.03676 16.6877 4.03975 16.1386 3.04525 15.3646C3.13971 15.1436 3.19242 14.8974 3.19242 14.6378C3.19242 13.6821 2.47777 12.9074 1.59621 12.9074C0.714648 12.9074 0 13.6821 0 14.6378C0 15.5936 0.714648 16.3683 1.59621 16.3683C1.64125 16.3683 1.68586 16.3663 1.72996 16.3623L1.89714 16.8559L1.89715 16.8559L1.89716 16.8559C2.91362 19.8574 3.79706 22.466 5.25561 26.1384C5.33111 26.3285 5.51569 26.4545 5.72022 26.4545H16.555H27.3898C27.5943 26.4545 27.7789 26.3285 27.8544 26.1384C29.313 22.466 30.1964 19.8573 31.2129 16.8559L31.2132 16.855L31.3889 16.3363C31.4883 16.3573 31.5911 16.3683 31.6961 16.3683C32.5777 16.3683 33.2924 15.5936 33.2924 14.6378C33.2924 13.6821 32.5777 12.9074 31.6961 12.9074C30.8146 12.9074 30.0999 13.6821 30.0999 14.6378C30.0999 14.8551 30.1369 15.063 30.2043 15.2545C29.1629 16.0872 28.1337 16.6616 26.7799 17.244C26.4645 17.3797 26.1133 17.1551 26.0964 16.8122C25.9509 13.85 25.9263 11.7645 25.9852 9.48687C26.0827 9.50705 26.1834 9.51761 26.2863 9.51761C27.1679 9.51761 27.8825 8.74285 27.8825 7.78714C27.8825 6.83142 27.1679 6.05666 26.2863 6.05666C25.4047 6.05666 24.6901 6.83142 24.6901 7.78714C24.6901 7.99765 24.7248 8.19938 24.7883 8.38598C23.3963 10.9723 22.2123 12.7132 20.3645 14.6491C20.0965 14.9298 19.6282 14.8005 19.536 14.4235C18.6872 10.9525 18.0705 7.95594 17.2289 3.36712Z" fill="white"/>
</svg>
