<svg width="25" height="25" viewBox="0 0 25 25" fill="none" xmlns="http://www.w3.org/2000/svg">
<path fill-rule="evenodd" clip-rule="evenodd" d="M14.2857 0H10.7143V1.93385C9.08633 2.20697 7.58285 2.84721 6.2919 3.76652L4.3111 1.78572L1.78571 4.3111L3.76652 6.2919C2.84721 7.58286 2.20697 9.08633 1.93385 10.7143H0V14.2857H1.93385C2.19434 15.8383 2.78874 17.2777 3.64071 18.5275L1.78571 20.3825L4.3111 22.9079L6.11456 21.1044C7.44437 22.0929 9.01121 22.7804 10.7143 23.0661V25H14.2857V23.0661C15.9137 22.793 17.4171 22.1528 18.7081 21.2335L20.3825 22.9079L22.9079 20.3825L21.2335 18.7081C22.1528 17.4171 22.793 15.9137 23.0661 14.2857H25V10.7143H23.0661C22.7804 9.01121 22.0929 7.44437 21.1044 6.11456L22.9079 4.3111L20.3825 1.78572L18.5275 3.64071C17.2777 2.78874 15.8383 2.19434 14.2857 1.93385V0ZM12.5 18.75C15.9518 18.75 18.75 15.9518 18.75 12.5C18.75 9.04822 15.9518 6.25 12.5 6.25C9.04822 6.25 6.25 9.04822 6.25 12.5C6.25 15.9518 9.04822 18.75 12.5 18.75Z" fill="white"/>
</svg>
