<svg width="22" height="22" viewBox="0 0 22 22" fill="none" xmlns="http://www.w3.org/2000/svg">
<path fill-rule="evenodd" clip-rule="evenodd" d="M20.4652 10.0822L16.359 14.1884C16.424 13.5328 16.3444 12.8192 16.1287 12.0913L18.9375 9.2825L18.9539 9.2662C20.3076 7.91248 20.1027 5.51272 18.4962 3.90619C16.8896 2.29966 14.4899 2.09472 13.1361 3.44844L13.136 3.44859L13.1359 3.44852L10.3105 6.27393C9.58274 6.05832 8.86927 5.97886 8.21376 6.04395L12.3396 1.91809L12.3397 1.91818L12.3398 1.91811C13.9514 0.30652 17.0811 0.823355 19.3303 3.0725C21.5794 5.32164 22.0962 8.45139 20.4846 10.063L20.4652 10.0822ZM12.5365 14.5205C12.6962 14.3608 12.8379 14.1901 12.9614 14.0112C11.8597 14.0475 10.6689 13.5872 9.74205 12.6604C8.81541 11.7337 8.35507 10.5432 8.39117 9.4417C8.21241 9.56515 8.04189 9.70671 7.88228 9.86631L7.88209 9.8665L7.88207 9.86648L7.10439 10.6442C7.43436 11.6334 8.0432 12.6289 8.90838 13.4941C9.77369 14.3594 10.7694 14.9683 11.7588 15.2982L12.5266 14.5304L12.5365 14.5205ZM1.92626 12.3319L1.91826 12.3399C0.30667 13.9515 0.823506 17.0812 3.07265 19.3304C5.32179 21.5795 8.45154 22.0963 10.0631 20.4847L10.0632 20.4847L10.0632 20.4847L14.6487 15.8992L14.6486 15.8991C16.26 14.2875 15.7431 11.1578 13.494 8.90876C11.2449 6.65962 8.11515 6.14278 6.50355 7.75437L6.4811 7.77706L1.92626 12.3319ZM7.30028 9.28479L3.4485 13.1366L3.4486 13.1367C2.09492 14.4904 2.29988 16.8901 3.90639 18.4966C5.51292 20.1032 7.91268 20.3081 9.26641 18.9544L9.28627 18.9343L13.1027 15.1179L13.1183 15.1025C14.472 13.7487 14.267 11.349 12.6605 9.74245C11.054 8.13592 8.65421 7.93098 7.30049 9.2847L7.30034 9.28485L7.30028 9.28479Z" fill="#FF8E8E"/>
</svg>
