<svg width="24" height="24" viewBox="0 0 24 24" fill="none" xmlns="http://www.w3.org/2000/svg">
<path fill-rule="evenodd" clip-rule="evenodd" d="M3 1.5H21C21.8284 1.5 22.5 2.17157 22.5 3V21C22.5 21.8284 21.8284 22.5 21 22.5H3C2.17157 22.5 1.5 21.8284 1.5 21V3C1.5 2.17157 2.17157 1.5 3 1.5ZM0 3C0 1.34315 1.34315 0 3 0H21C22.6569 0 24 1.34315 24 3V21C24 22.6569 22.6569 24 21 24H3C1.34315 24 0 22.6569 0 21V3ZM8.262 17H9.522V8.11H12.63V7.004H5.14V8.11H8.262V17ZM17.0493 16.09C16.8533 16.118 16.662 16.132 16.4753 16.132C16.13 16.132 15.8453 16.0247 15.6213 15.81C15.4066 15.586 15.2993 15.2453 15.2993 14.788V10.448H17.4693V9.496H15.2993V7.774H14.5713L14.0813 9.37L13.0033 9.86V10.448H14.0673V14.816C14.0673 15.4227 14.17 15.894 14.3753 16.23C14.5806 16.566 14.8466 16.804 15.1733 16.944C15.5093 17.0747 15.8733 17.14 16.2653 17.14C16.4893 17.14 16.7226 17.1167 16.9653 17.07C17.208 17.0327 17.3946 16.9813 17.5253 16.916V15.978C17.404 16.0153 17.2453 16.0527 17.0493 16.09Z" fill="#FFD9D9"/>
</svg>
