<svg width="22" height="25" viewBox="0 0 22 25" fill="none" xmlns="http://www.w3.org/2000/svg">
<path fill-rule="evenodd" clip-rule="evenodd" d="M8.66439 21.8178C6.60851 21.7128 4.55295 21.0729 2.71203 19.8544L3.36908 18.8617C8.30346 22.1277 14.9511 20.7752 18.2171 15.8408C21.4831 10.9065 20.1306 4.25876 15.1963 0.992749L15.8534 0C21.336 3.62889 22.8388 11.0152 19.2099 16.4979C17.2723 19.4252 14.2636 21.218 11.0453 21.7009V22.619H15.8072V25H11.0453H8.66439H2.71201V22.619H8.66439V21.8178ZM9.25963 19.0476C14.1907 19.0476 18.1882 15.0502 18.1882 10.119C18.1882 5.18793 14.1907 1.19048 9.25963 1.19048C4.32851 1.19048 0.331055 5.18793 0.331055 10.119C0.331055 15.0502 4.32851 19.0476 9.25963 19.0476Z" fill="white"/>
</svg>
