<svg width="79" height="24" viewBox="0 0 79 24" fill="none" xmlns="http://www.w3.org/2000/svg">
<path fill-rule="evenodd" clip-rule="evenodd" d="M47.5196 0C44.139 7.21216e-06 40.8618 2.27783 40.0548 5.23688C39.6229 6.82044 39.7584 8.13996 40.246 9.30106C40.7154 10.4186 41.4919 11.3351 42.2096 12.1427C42.29 12.2333 42.37 12.3229 42.4492 12.4117C43.8416 13.9717 45.0196 15.2915 45.0196 17.5C45.0196 18.643 44.7867 19.6493 44.2757 20.3461C43.8043 20.989 43.001 21.5 41.5196 21.5C40.1408 21.5 39.4127 20.8411 39.1391 20.1376C38.8495 19.393 38.9988 18.435 39.7267 17.7071C40.1172 17.3166 40.1172 16.6834 39.7267 16.2929C39.3362 15.9024 38.703 15.9024 38.3125 16.2929C37.0404 17.565 36.6896 19.357 37.2751 20.8624C37.8765 22.4089 39.3984 23.5 41.5196 23.5C43.5382 23.5 44.9849 22.761 45.8885 21.5289C46.7525 20.3507 47.0196 18.857 47.0196 17.5C47.0196 14.5026 45.3469 12.6421 44.0019 11.1462L44.0011 11.1453L43.9989 11.1429L43.9972 11.141C43.8976 11.0302 43.7998 10.9214 43.7046 10.8143C42.9848 10.0042 42.4175 9.30632 42.09 8.52659C41.7808 7.79038 41.6662 6.92956 41.9844 5.76312C42.519 3.80282 44.9002 2.00001 47.5196 2C49.4399 2 50.6887 3.31345 51.4215 4.5H48.0196C47.4673 4.5 47.0196 4.94771 47.0196 5.5C47.0196 6.05228 47.4673 6.5 48.0196 6.5H51.6322C52.3036 6.5 52.9058 6.1705 53.2515 5.64352C53.6066 5.10215 53.6642 4.38547 53.3016 3.74985C52.4911 2.32878 50.6854 -6.79493e-06 47.5196 0ZM59.4964 5.13176C59.9759 5.40577 60.1425 6.01662 59.8685 6.49614L56.7234 12H59.0002C59.5525 12 60.0002 12.4477 60.0002 13C60.0002 13.5523 59.5525 14 59.0002 14H55.5886L50.8744 22.4856C50.6062 22.9684 49.9974 23.1424 49.5146 22.8742C49.0318 22.6059 48.8579 21.9971 49.1261 21.5144L53.3007 14H50.5002C49.948 14 49.5002 13.5523 49.5002 13C49.5002 12.4477 49.948 12 50.5002 12H54.4199L58.132 5.50386C58.406 5.02434 59.0169 4.85775 59.4964 5.13176ZM68.41 14.4152C68.6393 13.9128 68.4179 13.3196 67.9155 13.0903C67.4131 12.861 66.8199 13.0823 66.5906 13.5848L66.1223 14.6106C66.0026 14.3845 65.8565 14.1648 65.6779 13.9627C65.1581 13.3746 64.4164 13 63.4647 13C61.2606 13 59.1306 14.4912 58.1048 16.5549C57.5502 17.6705 57.4228 19.1611 57.7084 20.3901C57.9852 21.5814 58.8077 23 60.5003 23C61.4851 23 62.3407 22.7471 63.0702 22.3673C63.1658 22.6093 63.3552 22.814 63.6142 22.9225C64.1236 23.1357 64.7095 22.8956 64.9227 22.3861L66.5908 18.4008L68.41 14.4152ZM64.7021 17.375C64.7021 17.5286 64.6968 17.6571 64.6913 17.7482C64.6479 17.84 64.5807 17.9748 64.4896 18.1384C64.3036 18.4723 64.0243 18.9143 63.6518 19.3516C62.8962 20.2389 61.8557 21 60.5003 21C60.2251 21 59.8577 20.8036 59.6565 19.9375C59.464 19.109 59.5704 18.0996 59.8957 17.4451C60.6373 15.9533 62.1335 15 63.4647 15C63.8388 15 64.0363 15.1254 64.1794 15.2873C64.354 15.4848 64.4957 15.8005 64.5875 16.2158C64.677 16.6205 64.7021 17.0424 64.7021 17.375ZM70.6923 14.2756C70.4492 14.7346 70.1117 15.3776 69.7256 16.1298C69.7214 16.1376 69.7173 16.1455 69.7133 16.1534L69.7054 16.1693L69.6928 16.1938C68.895 17.7501 67.8915 19.77 67.0854 21.5962C66.8624 22.1014 67.0912 22.6918 67.5964 22.9148C68.1017 23.1379 68.692 22.9091 68.9151 22.4038C69.6733 20.6862 70.6191 18.7751 71.3968 17.2542L71.4436 17.2168C73.1837 15.8288 74.2228 15 75.6331 15C75.9617 15 76.0754 15.0802 76.1071 15.107C76.1416 15.1363 76.2097 15.214 76.2513 15.4349C76.3444 15.9299 76.2278 16.7293 75.9267 17.7052C75.638 18.6411 75.2274 19.593 74.882 20.3217C74.7106 20.6833 74.5579 20.9844 74.4486 21.194C74.394 21.2986 74.3504 21.3802 74.3209 21.4348L74.2877 21.4959L74.2798 21.5104L74.2781 21.5134L74.278 21.5135L74.2779 21.5137L74.2779 21.5138C74.0094 21.9962 74.1828 22.6051 74.6652 22.8737C75.1477 23.1424 75.7567 22.969 76.0254 22.4865L75.1517 22C76.0254 22.4865 76.0255 22.4863 76.0256 22.4861L76.026 22.4855L76.0269 22.4837L76.0301 22.478L76.041 22.4582C76.0503 22.4412 76.0637 22.4168 76.0806 22.3855C76.1144 22.3229 76.1626 22.2326 76.2221 22.1185C76.3409 21.8906 76.5052 21.5667 76.6892 21.1783C77.0549 20.407 77.5096 19.3589 77.8379 18.2948C78.1538 17.2707 78.4059 16.0701 78.2168 15.0651C78.1172 14.536 77.8815 13.9887 77.3992 13.5805C76.914 13.1698 76.2978 13 75.6331 13C74.6273 13 73.7437 13.2821 72.9301 13.7094C72.8563 13.4664 72.6906 13.2513 72.4496 13.1208C71.964 12.8577 71.3571 13.038 71.094 13.5236L71.9733 14C71.094 13.5236 71.094 13.5237 71.094 13.5237L71.0939 13.5239L71.0935 13.5247L71.0921 13.5273L71.0867 13.5373L71.0659 13.5757L70.9865 13.7235C70.9174 13.8522 70.8173 14.0396 70.6923 14.2756ZM26.3834 14.0209C28.137 12.0395 30.3563 11.8843 31.7556 12.05C32.4953 12.1375 33.0364 12.6301 33.2343 13.26C33.4243 13.8648 33.2852 14.5373 32.8605 15.0474L28.2701 20.5594C28.6492 20.845 29.0839 21 29.536 21C30.536 21 31.4143 20.4515 32.1025 19.7851C32.4374 19.4607 32.7007 19.1333 32.8798 18.8868C32.9688 18.7643 33.0354 18.664 33.0783 18.597C33.0997 18.5635 33.115 18.5385 33.1242 18.5234L33.1329 18.5088L33.1332 18.5083L33.1337 18.5073C33.4091 18.0298 34.0192 17.8651 34.4976 18.1395C34.9766 18.4143 35.1422 19.0255 34.8674 19.5045L34 19.0069C34.8674 19.5045 34.8672 19.5048 34.8671 19.5051L34.8667 19.5058L34.8657 19.5074L34.8634 19.5114L34.8568 19.5227L34.8359 19.5577C34.8186 19.5864 34.7944 19.6257 34.7634 19.6741C34.7017 19.7707 34.6127 19.9043 34.4978 20.0624C34.2692 20.3771 33.9315 20.7979 33.4938 21.2218C32.6367 22.0519 31.2831 23 29.536 23C27.4338 23 25.935 21.4405 25.3287 19.6871C24.7159 17.9148 24.904 15.6924 26.3834 14.0209ZM27.1427 18.7878L31.1266 14.0041C30.1351 13.9612 28.8966 14.199 27.8811 15.3464C27.0187 16.3208 26.8258 17.6358 27.1427 18.7878ZM33.7871 1.61718C34.1279 1.18262 34.0519 0.554027 33.6174 0.21319C33.1828 -0.127647 32.5542 -0.0516638 32.2134 0.382903L15.9516 21.1166L18.8304 12.9233C19.5512 10.8718 16.9421 9.30599 15.4708 10.9071L5.5624 21.6898L12.9582 3.72845C13.6496 2.04948 11.9262 0.392284 10.2756 1.14882L0.583588 5.59098C0.0815249 5.82109 -0.138935 6.41464 0.0911774 6.9167C0.321289 7.41876 0.914834 7.63922 1.4169 7.40911L11.1089 2.96695L3.71304 20.9283C2.8626 22.9936 5.52371 24.6877 7.03505 23.043L16.9434 12.2604L14.0647 20.4537C13.3147 22.5882 16.129 24.1312 17.5253 22.3509L33.7871 1.61718Z" fill="white"/>
</svg>
