<svg width="30" height="25" viewBox="0 0 30 25" fill="none" xmlns="http://www.w3.org/2000/svg">
<path fill-rule="evenodd" clip-rule="evenodd" d="M21.1465 14.5425C20.859 14.856 20.5603 15.1445 20.251 15.4014C19.8262 15.7543 19.1957 15.696 18.8428 15.2712C18.4899 14.8464 18.5482 14.2159 18.973 13.863C19.34 13.5581 19.7026 13.1809 20.0566 12.7453C19.7593 12.0281 19.5568 11.2203 19.4753 10.336L18.0544 15.6432C17.9115 16.1767 17.3632 16.4934 16.8297 16.3505C16.4446 16.2474 16.1724 15.9329 16.1046 15.5652C15.4361 16.0478 14.6323 16.3845 13.6991 16.3845C12.6802 16.3845 12.0323 15.6624 11.6688 14.99C11.2959 14.3004 11.0716 13.4166 10.9481 12.5194C10.7005 10.7207 10.8151 8.5323 11.2872 6.929C11.7472 5.36689 12.4613 4.00273 13.3367 3.00884C14.199 2.02989 15.3166 1.30762 16.5698 1.30762C17.7624 1.30762 18.4872 2.13957 18.8866 2.93426C18.9812 3.12243 19.0651 3.3216 19.1397 3.52789L19.5079 2.06374C19.6426 1.52813 20.1859 1.20312 20.7215 1.33782C21.2572 1.47251 21.5822 2.0159 21.4475 2.55151L19.9295 8.5876C20.0779 8.50048 20.2507 8.45053 20.4352 8.45053C20.9875 8.45053 21.4352 8.89824 21.4352 9.45053C21.4352 9.84276 21.4623 10.2103 21.5125 10.5536L21.5661 10.457C22.3528 9.02869 23.0149 7.43227 23.5041 5.95469C23.7522 5.20523 23.9519 4.49835 24.1003 3.8698C23.8513 3.44002 23.6393 3.01423 23.5159 2.6182C23.3946 2.22854 23.3123 1.72928 23.4826 1.22602C23.6683 0.677249 24.0848 0.318871 24.5682 0.111363C24.8717 -0.0188904 25.3268 -0.083226 25.7545 0.195725C26.1165 0.431806 26.2581 0.791702 26.3184 1.00181C26.4425 1.43436 26.4283 1.97675 26.3766 2.48168C26.3448 2.79118 26.2932 3.13422 26.2233 3.50337C26.31 3.63863 26.4028 3.78111 26.5014 3.93117C26.5623 4.02372 26.6248 4.11837 26.6885 4.21495L26.6887 4.21519C27.1819 4.96219 27.7511 5.82447 28.2187 6.71854C28.7457 7.7264 29.195 8.86696 29.2541 10.0483C29.3593 12.1522 28.891 13.8047 27.9665 14.9171C27.0249 16.0502 25.6947 16.5141 24.3707 16.3536C23.1636 16.2073 22.0252 15.5696 21.1465 14.5425ZM19.4381 9.37365L19.4381 9.37374L18.7498 9.19319L19.4381 9.37365ZM22.4119 12.9156C23.0466 13.8082 23.8875 14.2804 24.6114 14.3682C25.291 14.4505 25.9401 14.2263 26.4284 13.6388C26.9337 13.0308 27.3457 11.9305 27.2566 10.1482C27.2185 9.38638 26.9175 8.54639 26.4464 7.64532C26.1769 7.13 25.8686 6.62488 25.5495 6.12784C25.5023 6.27857 25.4533 6.43048 25.4027 6.58328C24.8826 8.15439 24.1743 9.86704 23.3179 11.4219C23.0355 11.9345 22.7333 12.437 22.4119 12.9156ZM17.7527 9.0331C17.7544 8.98985 17.7565 8.93377 17.7586 8.86628C17.7639 8.68796 17.769 8.43101 17.7673 8.12188C17.764 7.49987 17.7336 6.68375 17.6292 5.87853C17.5225 5.05504 17.3482 4.327 17.0996 3.83244C16.8502 3.33626 16.661 3.30762 16.5698 3.30762C16.1112 3.30762 15.495 3.58428 14.8375 4.33077C14.1932 5.0623 13.6015 6.15007 13.2058 7.49395C12.8259 8.78409 12.714 10.6822 12.9294 12.2467C13.0374 13.031 13.2169 13.6481 13.4281 14.0388C13.5319 14.2307 13.6204 14.3249 13.6711 14.3647C13.6827 14.3737 13.6911 14.379 13.6963 14.382L13.7012 14.3845C14.2316 14.3839 14.7443 14.1489 15.2565 13.6797C15.7758 13.2039 16.237 12.5366 16.6261 11.8142C17.0113 11.0991 17.3017 10.3756 17.4966 9.82581C17.5934 9.55248 17.6653 9.32583 17.7125 9.1695C17.7289 9.11504 17.7423 9.06924 17.7527 9.0331ZM4.15088 2.37428L4.15196 2.37339C4.15403 2.37394 4.15648 2.37467 4.1593 2.37566C4.17021 2.37947 4.18384 2.38616 4.19804 2.39641C4.22928 2.41895 4.24241 2.44282 4.24542 2.45105L4.24564 2.45167C4.24528 2.45381 4.24435 2.4579 4.24207 2.46425C3.37242 4.88668 2.33077 8.10112 1.87955 10.7346C1.65735 12.0314 1.55609 13.3045 1.75858 14.2972C1.86123 14.8004 2.05997 15.3245 2.4493 15.7324C2.86672 16.1696 3.41882 16.3846 4.02986 16.3846C5.29907 16.3846 6.28817 15.6106 7.02067 14.6909C7.1194 14.5669 7.21581 14.4375 7.30997 14.3032C7.13635 14.8773 6.95269 15.4409 6.75831 15.9886C6.02448 18.0562 5.16199 19.8247 4.16123 21.0591C3.16675 22.2857 2.12453 22.8846 1 22.8846C0.447715 22.8846 0 23.3323 0 23.8846C0 24.4368 0.447715 24.8846 1 24.8846C2.94271 24.8846 4.50077 23.816 5.71479 22.3186C6.92253 20.829 7.87677 18.8167 8.64312 16.6575C10.1786 12.3311 11.0567 7.12722 11.5917 3.5573C11.6325 3.28475 11.6481 3.00949 11.6141 2.76047C11.5976 2.63944 11.5625 2.47168 11.476 2.30153C11.3949 2.14209 11.1958 1.84515 10.795 1.73165C10.3689 1.61103 10.0237 1.78158 9.84829 1.91158C9.67763 2.03808 9.5685 2.19066 9.50371 2.29585C9.36906 2.51448 9.27542 2.7782 9.20737 3.04289C9.13582 3.32124 9.06142 3.61528 8.98388 3.92169C8.48407 5.89688 7.85419 8.38604 7.02048 10.4986C6.53839 11.7202 6.01488 12.7434 5.4562 13.4449C4.88981 14.1561 4.41457 14.3846 4.02986 14.3846C3.92256 14.3846 3.90399 14.3613 3.89745 14.3531L3.89596 14.3514C3.86242 14.3162 3.77928 14.1968 3.71823 13.8975C3.59334 13.2852 3.63744 12.3177 3.85083 11.0723C4.27079 8.62128 5.26123 5.54452 6.12444 3.14002C6.47871 2.1532 6.01977 1.24457 5.36825 0.774494C4.71424 0.302619 3.69906 0.155094 2.87906 0.830746L1.22977 2.18971C0.803532 2.54091 0.742707 3.17115 1.09391 3.59738C1.44511 4.02362 2.07535 4.08444 2.50158 3.73324L4.15088 2.37428Z" fill="white"/>
</svg>
