<svg width="32" height="27" viewBox="0 0 32 27" fill="none" xmlns="http://www.w3.org/2000/svg">
<path fill-rule="evenodd" clip-rule="evenodd" d="M22.7449 15.8971C22.4282 16.2462 22.0989 16.5667 21.7574 16.8504C21.3325 17.2033 20.7021 17.145 20.3492 16.7201C19.9963 16.2953 20.0546 15.6648 20.4794 15.3119C20.8789 14.98 21.2729 14.5685 21.6568 14.0932C21.2986 13.2398 21.0681 12.2624 21.0066 11.1821L19.4124 17.1364C19.2695 17.6699 18.7212 17.9866 18.1877 17.8437C17.7696 17.7318 17.4846 17.3707 17.4497 16.9629C16.734 17.4994 15.8679 17.8777 14.8577 17.8777C13.8108 17.8777 13.1405 17.1362 12.7597 16.432C12.3697 15.7106 12.1335 14.7827 12.0032 13.836C11.742 11.9384 11.8632 9.62982 12.3604 7.94141C12.8456 6.29384 13.598 4.85756 14.5182 3.81292C15.4251 2.78323 16.5937 2.03158 17.8972 2.03158C19.1277 2.03158 19.8793 2.88884 20.2978 3.72149C20.4249 3.9744 20.5338 4.24656 20.6272 4.52947L21.0652 2.78769C21.1999 2.25209 21.7433 1.92708 22.2789 2.06178C22.8145 2.19647 23.1395 2.73986 23.0048 3.27547L21.3594 9.81849C21.5314 9.67854 21.7509 9.59465 21.99 9.59465C22.5423 9.59465 22.99 10.0424 22.99 10.5947C22.99 11.0771 23.0286 11.5249 23.0991 11.9387C23.146 11.8561 23.1926 11.7728 23.2389 11.6887C24.074 10.1727 24.7764 8.47892 25.2952 6.91167C25.5613 6.10792 25.7751 5.34972 25.9333 4.67635C25.6662 4.21709 25.4391 3.76348 25.3081 3.34293C25.1814 2.93583 25.0978 2.42126 25.2724 1.9052C25.4624 1.34365 25.8888 0.975016 26.3894 0.760184C26.6986 0.627446 27.1585 0.563259 27.5901 0.844725C27.9559 1.08332 28.1005 1.44809 28.1628 1.66517C28.2908 2.11167 28.2771 2.67639 28.2223 3.20988C28.1883 3.54223 28.1324 3.91162 28.0565 4.3097C28.1521 4.45922 28.2548 4.61683 28.3639 4.78294C28.4283 4.88083 28.4944 4.9809 28.5617 5.08294L28.562 5.08343L28.5623 5.08387C29.0847 5.87506 29.6857 6.78542 30.1792 7.72922C30.7356 8.79323 31.207 9.99204 31.2689 11.2305C31.3799 13.4487 30.8857 15.1822 29.9191 16.3452C28.9354 17.5289 27.547 18.0131 26.1641 17.8454C24.8832 17.6901 23.6726 17.0043 22.7449 15.8971ZM20.9921 10.5284L20.9921 10.5286L20.2115 10.3237L20.9921 10.5284ZM24.0116 14.2643C24.6945 15.2429 25.6099 15.7636 26.4048 15.8599C27.1433 15.9495 27.8507 15.705 28.381 15.0669C28.9284 14.4083 29.3663 13.2271 29.2714 11.3304C29.2305 10.5115 28.9074 9.61322 28.4069 8.656C28.1014 8.0718 27.749 7.50001 27.3864 6.93878C27.3251 7.13737 27.2608 7.33806 27.1939 7.54026C26.6441 9.20104 25.8955 11.011 24.9907 12.6536C24.6858 13.2073 24.3591 13.7493 24.0116 14.2643ZM19.2316 10.0783L19.2188 10.1246L19.2082 10.1621C19.2102 10.1152 19.2125 10.0532 19.2148 9.97781C19.2205 9.78842 19.2258 9.51565 19.2241 9.18754C19.2206 8.52757 19.1884 7.66082 19.0774 6.80498C18.964 5.93087 18.7785 5.1522 18.5108 4.61968C18.2424 4.08553 18.0262 4.03158 17.8972 4.03158C17.3883 4.03158 16.7212 4.33762 16.019 5.13485C15.33 5.91714 14.6999 7.07702 14.279 8.50636C13.874 9.88161 13.7555 11.8999 13.9845 13.5633C14.0992 14.3971 14.2906 15.0583 14.519 15.4808C14.6314 15.6886 14.7298 15.7956 14.7918 15.8442C14.8375 15.8799 14.8533 15.8782 14.8571 15.8778L14.8577 15.8777C15.4393 15.8777 15.9964 15.6199 16.5465 15.1159C17.1031 14.606 17.5951 13.8932 18.0087 13.1252C18.4184 12.3646 18.7271 11.5956 18.934 11.0117C19.0369 10.7213 19.1133 10.4804 19.1635 10.3141C19.182 10.2527 19.1969 10.2016 19.2082 10.1621L19.208 10.1665L19.2316 10.0783ZM4.89349 2.90593L4.89573 2.90413C4.89791 2.90467 4.90056 2.90544 4.90366 2.90651C4.91434 2.91022 4.92762 2.91672 4.94137 2.9266C4.97041 2.94748 4.98267 2.96912 4.98576 2.97667C4.98529 2.97893 4.98433 2.98266 4.98238 2.98805C4.05839 5.54218 2.9253 8.99718 2.42289 11.8378C2.17519 13.2383 2.05817 14.6053 2.26279 15.6659C2.36626 16.2022 2.56947 16.756 2.97072 17.1863C3.40143 17.6482 3.97669 17.8777 4.61971 17.8777C5.95174 17.8777 6.9917 17.0573 7.76598 16.0743C7.93688 15.8574 8.10127 15.6247 8.25948 15.3791C8.05183 16.0869 7.83014 16.7817 7.59331 17.4543C6.81434 19.6667 5.89558 21.5678 4.82446 22.8984C3.75927 24.2217 2.63385 24.8777 1.41162 24.8777C0.859336 24.8777 0.411621 25.3255 0.411621 25.8777C0.411621 26.43 0.859336 26.8777 1.41162 26.8777C3.45761 26.8777 5.09968 25.746 6.38241 24.1525C7.65922 22.5664 8.66881 20.4218 9.47979 18.1185C11.1046 13.5038 12.0285 7.96347 12.5896 4.2028C12.6305 3.9287 12.6454 3.65086 12.6091 3.39889C12.5914 3.27608 12.5544 3.1071 12.465 2.93639C12.38 2.774 12.179 2.48692 11.7862 2.37632C11.3704 2.25923 11.0296 2.41874 10.8496 2.54854C10.676 2.67378 10.5642 2.82633 10.4974 2.93283C10.359 3.15324 10.2635 3.41916 10.1947 3.68522C10.1076 4.02201 10.0164 4.38233 9.92073 4.76057L9.92073 4.76058C9.3987 6.8236 8.74169 9.42008 7.87355 11.643C7.3595 12.9592 6.79826 14.0707 6.19486 14.8368C5.58283 15.6138 5.05779 15.8777 4.61971 15.8777C4.48476 15.8777 4.45437 15.8449 4.43513 15.8242L4.43342 15.8223C4.38476 15.7701 4.29146 15.6233 4.22658 15.2871C4.09452 14.6026 4.15346 13.5367 4.39232 12.1861C4.86304 9.52467 5.94549 6.20492 6.86309 3.66843C7.2201 2.68159 6.76204 1.77232 6.10882 1.3027C5.45368 0.831704 4.43971 0.688362 3.62167 1.3624L1.69231 2.95213C1.26607 3.30333 1.20525 3.93357 1.55645 4.3598C1.90766 4.78604 2.53789 4.84686 2.96413 4.49566L4.89349 2.90593Z" fill="#FFD9D9"/>
</svg>
